<svg width="894" height="1037" viewBox="0 0 894 1037" fill="none" xmlns="http://www.w3.org/2000/svg">
<path d="M124.822 332.711L0.785156 259.748L3.70367 777.785L126.281 852.207L124.822 332.711Z" fill="#0052CC"/>
<path d="M893.852 779.244L768.355 850.748L771.274 335.63L893.852 261.207V779.244Z" fill="#0052CC"/>
<path d="M448.778 143.007L124.822 332.711L0.785156 259.748L448.778 0L893.852 261.207L771.274 335.63L448.778 143.007Z" fill="#0052CC"/>
<path d="M893.851 630.4L448.777 890.148V1034.61L893.851 777.785V630.4Z" fill="#0052CC"/>
<path d="M448.779 890.148L253.238 774.867V919.333L448.779 1036.07V890.148Z" fill="#0052CC"/>
<path d="M449.557 293.311L643.52 405.071C645.473 406.196 645.468 409.015 643.512 410.133L449.552 521.054L258.214 410.125C256.278 409.003 256.273 406.209 258.206 405.08L449.557 293.311Z" fill="#0052CC" stroke="#0052CC" stroke-width="2.91852"/>
<path d="M449.56 517.385L643.569 410.021C645.52 408.941 647.912 410.359 647.901 412.589L646.788 631.261L453.867 742.724C451.921 743.848 449.488 742.443 449.488 740.196L449.56 517.385Z" fill="#0052CC"/>
<path d="M449.402 519.098C449.401 518.04 448.829 517.066 447.906 516.55L257.05 410.026C255.108 408.941 252.715 410.342 252.709 412.567L252.177 629.571C252.174 630.616 252.73 631.583 253.635 632.106L445.094 742.724C447.04 743.848 449.473 742.443 449.473 740.196L449.402 519.098Z" fill="#0052CC"/>
</svg>
